# xmcd
#
# Track frame offsets: 
#        150
#        22525
#        46805
#        65635
#        75076
#        109274
#        128780
#        158852
#        181914
#        207620
#        274310
#        301016
#
# Disc length: 4397 seconds
#
# Revision: 0
# Processed by: cddbd v1.5.2PL0 Copyright (c) Steve Scherf et al.
# Submitted via: ExactAudioCopy v0.95b3
#
DISCID=94112b0c
DTITLE=Yes  - Drama Demos 1980   FLAC
DYEAR=1900
DGENRE=
TTITLE0=Tempus Fugit
TTITLE1=Untitled 1
TTITLE2=Does It Really Happen?
TTITLE3=Does It Really Happen? #2
TTITLE4=Song No.4 (Satellite)
TTITLE5=Run Through the Light
TTITLE6=Does It Really Happen?
TTITLE7=Tempus Fugit
TTITLE8=Untitled 1
TTITLE9=Song No.4 (Satellite) (long version)
TTITLE10=We Can Fly From Here (studio demo)
TTITLE11=We Can Fly From Here (later full studio mix)
EXTD=
EXTT0=
EXTT1=
EXTT2=
EXTT3=
EXTT4=
EXTT5=
EXTT6=
EXTT7=
EXTT8=
EXTT9=
EXTT10=
EXTT11=
PLAYORDER=
